<svg width="514" height="198" viewBox="0 0 514 198" fill="none" xmlns="http://www.w3.org/2000/svg">
<path d="M383.602 190C457.287 190 498.407 151 514 131.5V50L3.99997 73.5V133.5C3.99997 156.5 33.5568 190 83.8945 190C146.817 190 164.203 131.5 215.12 131.5C256.93 131.5 309.917 190 383.602 190Z" fill="#CD5378"/>
<path d="M383.602 190.5C457.287 190.5 498.407 151.5 514 132V20.5L3.99997 44V134C3.99997 157 33.5568 190.5 83.8945 190.5C146.817 190.5 164.203 132 215.12 132C256.93 132 309.917 190.5 383.602 190.5Z" fill="#DF3F8C"/>
<path d="M134.398 190C60.7127 190 19.5925 151 4 131.5V23L514 46.5V133.5C514 156.5 484.443 190 434.106 190C371.183 190 353.797 131.5 302.88 131.5C261.07 131.5 208.083 190 134.398 190Z" fill="#973150"/>
<path d="M134.398 190C60.7127 190 19.5925 151 4 131.5V50L514 73.5V133.5C514 156.5 484.443 190 434.106 190C371.183 190 353.797 131.5 302.88 131.5C261.07 131.5 208.083 190 134.398 190Z" fill="#973150"/>
<mask id="mask0_24_2" style="mask-type:alpha" maskUnits="userSpaceOnUse" x="4" y="0" width="510" height="190">
<path d="M134.398 190C60.7127 190 19.5925 151 4 131.5V0L514 23.5V133.5C514 156.5 484.443 190 434.106 190C371.183 190 353.797 131.5 302.88 131.5C261.07 131.5 208.083 190 134.398 190Z" fill="#973150"/>
</mask>
<g mask="url(#mask0_24_2)">
<path d="M92.0089 186C65.218 189.644 7.60145 191.5 -2.10914 186L-29 205.5L19.1795 222.5L76.3225 265L297.612 181L478.565 231V190.5C408.537 190.5 390.283 109 315.486 109C245.931 109 209.656 170 92.0089 186Z" fill="url(#paint0_linear_24_2)"/>
</g>
<defs>
<linearGradient id="paint0_linear_24_2" x1="224.782" y1="112" x2="224.782" y2="265" gradientUnits="userSpaceOnUse">
<stop stop-color="#BC5473"/>
<stop offset="0.746259" stop-color="#BC5473" stop-opacity="0"/>
</linearGradient>
</defs>
</svg>
